<?xml version="1.0" encoding="UTF-8" standalone="no"?>
<svg
   xmlns:dc="http://purl.org/dc/elements/1.1/"
   xmlns:cc="http://creativecommons.org/ns#"
   xmlns:rdf="http://www.w3.org/1999/02/22-rdf-syntax-ns#"
   xmlns:svg="http://www.w3.org/2000/svg"
   xmlns="http://www.w3.org/2000/svg"
   xmlns:sodipodi="http://sodipodi.sourceforge.net/DTD/sodipodi-0.dtd"
   xmlns:inkscape="http://www.inkscape.org/namespaces/inkscape"
   inkscape:version="1.0 (4035a4fb49, 2020-05-01)"
   sodipodi:docname="chat.svg"
   id="svg10"
   preserveAspectRatio="xMidYMid meet"
   viewBox="0 0 32.000000 32.000000"
   height="32.000000pt"
   width="32.000000pt"
   version="1.0">
  <metadata
     id="metadata16">
    <rdf:RDF>
      <cc:Work
         rdf:about="">
        <dc:format>image/svg+xml</dc:format>
        <dc:type
           rdf:resource="http://purl.org/dc/dcmitype/StillImage" />
      </cc:Work>
    </rdf:RDF>
  </metadata>
  <defs
     id="defs14" />
  <sodipodi:namedview
     inkscape:current-layer="svg10"
     inkscape:window-maximized="1"
     inkscape:window-y="-8"
     inkscape:window-x="-8"
     inkscape:cy="21.333333"
     inkscape:cx="21.333333"
     inkscape:zoom="12.609375"
     showgrid="false"
     id="namedview12"
     inkscape:window-height="705"
     inkscape:window-width="1366"
     inkscape:pageshadow="2"
     inkscape:pageopacity="0"
     guidetolerance="10"
     gridtolerance="10"
     objecttolerance="10"
     borderopacity="1"
     bordercolor="#666666"
     pagecolor="#ffffff" />
  <g
     style="fill:#ffffff"
     id="g8"
     stroke="none"
     fill="#000000"
     transform="translate(0.000000,32.000000) scale(0.100000,-0.100000)">
    <path
       style="fill:#ffffff"
       id="path2"
       d="M40 200 c0 -73 2 -80 20 -80 13 0 20 -7 20 -20 0 -13 7 -20 20 -20 16 0 20 -7 20 -31 l0 -31 35 31 c29 25 45 31 80 31 l45 0 0 80 c0 73 -2 80 -20 80 -13 0 -20 7 -20 20 0 19 -7 20 -100 20 l-100 0 0 -80z m180 50 c0 -6 -30 -10 -70 -10 l-70 0 0 -50 c0 -27 -4 -50 -10 -50 -6 0 -10 27 -10 60 l0 60 80 0 c47 0 80 -4 80 -10z m40 -90 l0 -60 -48 0 c-26 0 -53 -5 -60 -12 -9 -9 -12 -9 -12 0 0 7 -9 12 -20 12 -18 0 -20 7 -20 60 l0 60 80 0 80 0 0 -60z" />
    <path
       style="fill:#ffffff"
       id="path4"
       d="M130 180 c0 -5 23 -10 50 -10 28 0 50 5 50 10 0 6 -22 10 -50 10 -27 0 -50 -4 -50 -10z" />
    <path
       style="fill:#ffffff"
       id="path6"
       d="M130 140 c0 -5 14 -10 30 -10 17 0 30 5 30 10 0 6 -13 10 -30 10 -16 0 -30 -4 -30 -10z" />
  </g>
</svg>
