<?xml version="1.0" standalone="no"?>
<!DOCTYPE svg PUBLIC "-//W3C//DTD SVG 20010904//EN"
 "http://www.w3.org/TR/2001/REC-SVG-20010904/DTD/svg10.dtd">
<svg version="1.0" xmlns="http://www.w3.org/2000/svg"
 width="96.000000pt" height="96.000000pt" viewBox="0 0 96.000000 96.000000"
 preserveAspectRatio="xMidYMid meet">

<g transform="translate(0.000000,96.000000) scale(0.100000,-0.100000)"
fill="#000000" stroke="none">
<path d="M132 828 c-16 -16 -16 -200 0 -216 16 -16 200 -16 216 0 16 16 16
200 0 216 -16 16 -200 16 -216 0z m148 -108 l0 -40 -40 0 -40 0 0 40 0 40 40
0 40 0 0 -40z"/>
<path d="M440 800 l0 -40 40 0 40 0 0 40 0 40 -40 0 -40 0 0 -40z"/>
<path d="M612 828 c-16 -16 -16 -200 0 -216 16 -16 200 -16 216 0 16 16 16
200 0 216 -16 16 -200 16 -216 0z m148 -108 l0 -40 -40 0 -40 0 0 40 0 40 40
0 40 0 0 -40z"/>
<path d="M440 640 l0 -40 40 0 40 0 0 40 0 40 -40 0 -40 0 0 -40z"/>
<path d="M120 480 l0 -40 40 0 40 0 0 40 0 40 -40 0 -40 0 0 -40z"/>
<path d="M280 480 l0 -40 40 0 40 0 0 40 0 40 -40 0 -40 0 0 -40z"/>
<path d="M440 480 l0 -40 40 0 40 0 0 -40 0 -40 -40 0 -40 0 0 -40 0 -40 40 0
40 0 0 -40 0 -40 -40 0 -40 0 0 -40 0 -40 40 0 40 0 0 40 0 40 40 0 40 0 0
-40 0 -40 40 0 40 0 0 40 0 40 40 0 40 0 0 -40 0 -40 40 0 40 0 0 40 0 40 -40
0 -40 0 0 40 0 40 40 0 40 0 0 40 0 40 -40 0 -40 0 0 40 0 40 40 0 40 0 0 40
0 40 -40 0 -40 0 0 -40 0 -40 -40 0 -40 0 0 40 0 40 -40 0 -40 0 0 -40 0 -40
-40 0 -40 0 0 40 0 40 -40 0 -40 0 0 -40z m240 -80 l0 -40 40 0 40 0 0 -40 0
-40 -40 0 -40 0 0 -40 0 -40 -40 0 -40 0 0 40 0 40 -40 0 -40 0 0 40 0 40 40
0 40 0 0 40 0 40 40 0 40 0 0 -40z"/>
<path d="M600 320 l0 -40 40 0 40 0 0 40 0 40 -40 0 -40 0 0 -40z"/>
<path d="M132 348 c-16 -16 -16 -200 0 -216 16 -16 200 -16 216 0 16 16 16
200 0 216 -16 16 -200 16 -216 0z m148 -108 l0 -40 -40 0 -40 0 0 40 0 40 40
0 40 0 0 -40z"/>
</g>
</svg>
