<?xml version="1.0" standalone="no"?>
<!DOCTYPE svg PUBLIC "-//W3C//DTD SVG 20010904//EN"
 "http://www.w3.org/TR/2001/REC-SVG-20010904/DTD/svg10.dtd">
<svg version="1.0" xmlns="http://www.w3.org/2000/svg"
 width="32.000000pt" height="32.000000pt" viewBox="0 0 32.000000 32.000000"
 preserveAspectRatio="xMidYMid meet">

<g transform="translate(0.000000,32.000000) scale(0.100000,-0.100000)"
fill="#000000" stroke="none">
<path d="M143 226 l-113 -42 75 -74 c41 -41 77 -72 79 -69 10 10 85 229 78
228 -4 -1 -58 -20 -119 -43z m97 6 c0 -19 -58 -166 -67 -169 -5 -2 -20 8 -33
22 l-24 25 40 43 39 42 -42 -39 -43 -40 -25 24 c-14 13 -24 28 -22 33 3 10
141 65 165 66 6 1 12 -3 12 -7z"/>
</g>
</svg>
