<?xml version="1.0" encoding="UTF-8" standalone="no"?>
<svg
   xmlns:dc="http://purl.org/dc/elements/1.1/"
   xmlns:cc="http://creativecommons.org/ns#"
   xmlns:rdf="http://www.w3.org/1999/02/22-rdf-syntax-ns#"
   xmlns:svg="http://www.w3.org/2000/svg"
   xmlns="http://www.w3.org/2000/svg"
   xmlns:sodipodi="http://sodipodi.sourceforge.net/DTD/sodipodi-0.dtd"
   xmlns:inkscape="http://www.inkscape.org/namespaces/inkscape"
   inkscape:version="1.0 (4035a4fb49, 2020-05-01)"
   sodipodi:docname="suit.svg"
   id="svg10"
   xml:space="preserve"
   enable-background="new 0 0 1000 1000"
   viewBox="0 0 1000 1000"
   y="0px"
   x="0px"
   version="1.1"><defs
   id="defs14" /><sodipodi:namedview
   inkscape:current-layer="svg10"
   inkscape:window-maximized="1"
   inkscape:window-y="-8"
   inkscape:window-x="-8"
   inkscape:cy="500"
   inkscape:cx="500"
   inkscape:zoom="0.538"
   showgrid="false"
   id="namedview12"
   inkscape:window-height="705"
   inkscape:window-width="1366"
   inkscape:pageshadow="2"
   inkscape:pageopacity="0"
   guidetolerance="10"
   gridtolerance="10"
   objecttolerance="10"
   borderopacity="1"
   bordercolor="#666666"
   pagecolor="#ffffff" />
<metadata
   id="metadata2"> Svg Vector Icons : http://www.onlinewebfonts.com/icon <rdf:RDF><cc:Work
     rdf:about=""><dc:format>image/svg+xml</dc:format><dc:type
       rdf:resource="http://purl.org/dc/dcmitype/StillImage" /></cc:Work></rdf:RDF></metadata>
<g
   style="fill:#ffffff"
   id="g8"><g
     style="fill:#ffffff"
     id="g6"
     transform="translate(0.000000,511.000000) scale(0.100000,-0.100000)"><path
       style="fill:#ffffff"
       id="path4"
       d="M4095.4,3836.9c-139.8-45.6-379.4-290.9-422.1-436.4c-20-65.6-34.2-242.5-34.2-393.6v-273.8H2167.2c-1075.3,0-1506-8.6-1591.6-34.2c-156.9-45.6-393.6-282.4-439.2-439.3c-48.5-165.4-48.5-5274,0-5433.8c42.8-145.5,196.8-325.2,348-405l117-62.8l4321.3-8.6c3063.5-5.7,4364.1,0,4466.8,22.8c174,37.1,353.7,179.7,447.8,353.7l62.8,116.9v2695.5v2695.5l-62.8,116.9c-79.9,151.2-259.6,305.2-405,348c-77,25.7-547.6,34.2-1583.1,34.2H6377.3v259.6c0,373.7-39.9,496.3-211.1,667.5c-91.3,91.3-188.2,156.9-262.4,179.7C5749.8,3885.4,4240.9,3882.5,4095.4,3836.9z M5849.6,3346.3c65.6-62.8,71.3-91.3,71.3-342.3v-271h-912.8h-912.8v271c0,251,5.7,279.5,71.3,342.3l68.4,71.3h773h773L5849.6,3346.3z M1927.7-461.6v-2738.3h-613.3c-616.1,0-616.1,0-684.6,71.3l-71.3,68.5v2598.5v2598.5l71.3,68.5c68.4,71.3,68.4,71.3,684.6,71.3h613.3V-461.6z M7632.4-461.6v-2738.3H5008.2H2384v2738.3v2738.3h2624.2h2624.2V-461.6z M9386.6,2205.4l71.3-68.5V-461.6v-2598.5l-71.3-68.5c-68.5-71.3-68.5-71.3-684.6-71.3h-613.3v2738.3v2738.3H8702C9318.1,2276.7,9318.1,2276.7,9386.6,2205.4z" /></g></g>
</svg>
