<?xml version="1.0" standalone="no"?>
<!DOCTYPE svg PUBLIC "-//W3C//DTD SVG 20010904//EN"
 "http://www.w3.org/TR/2001/REC-SVG-20010904/DTD/svg10.dtd">
<svg version="1.0" xmlns="http://www.w3.org/2000/svg"
 width="50.000000pt" height="50.000000pt" viewBox="0 0 50.000000 50.000000"
 preserveAspectRatio="xMidYMid meet">

<g transform="translate(0.000000,50.000000) scale(0.100000,-0.100000)"
fill="#000000" stroke="none">
<path d="M155 456 c-60 -28 -87 -56 -114 -116 -29 -64 -27 -125 7 -191 87
-173 317 -173 405 0 34 69 35 128 3 196 -28 60 -56 87 -116 114 -60 27 -123
26 -185 -3z m160 -7 c55 -15 120 -82 135 -139 19 -71 -6 -181 -45 -196 -7 -3
-34 4 -59 15 -52 23 -57 38 -26 89 22 35 28 129 10 161 -24 46 -125 51 -155 8
-23 -32 -20 -129 5 -169 31 -51 26 -66 -26 -89 -25 -11 -52 -18 -60 -15 -23 9
-54 86 -54 136 0 85 58 167 136 195 48 17 87 18 139 4z"/>
</g>
</svg>
