<?xml version="1.0" standalone="no"?>
<!DOCTYPE svg PUBLIC "-//W3C//DTD SVG 20010904//EN"
 "http://www.w3.org/TR/2001/REC-SVG-20010904/DTD/svg10.dtd">
<svg version="1.0" xmlns="http://www.w3.org/2000/svg"
 width="50.000000pt" height="50.000000pt" viewBox="0 0 50.000000 50.000000"
 preserveAspectRatio="xMidYMid meet">

<g transform="translate(0.000000,50.000000) scale(0.100000,-0.100000)"
fill="#000000" stroke="none">
<path d="M353 436 c-46 -65 -79 -79 -206 -85 -121 -7 -127 -10 -127 -78 0 -31
6 -48 22 -62 13 -13 29 -52 42 -103 l21 -83 43 -3 c51 -4 62 13 38 62 -9 19
-16 53 -16 76 l0 43 46 -7 c62 -8 99 -32 140 -89 19 -27 40 -47 47 -44 13 4
26 60 26 119 1 27 6 38 20 43 37 11 38 68 2 80 -14 4 -19 20 -24 73 -10 117
-25 128 -74 58z m51 -17 c8 -40 6 -277 -2 -307 -7 -22 -9 -21 -45 23 -42 50
-74 70 -130 80 l-37 7 0 54 c0 49 2 54 23 54 42 0 125 47 149 84 13 20 26 36
29 36 4 0 9 -14 13 -31z m-234 -144 l0 -56 -62 3 -63 3 -3 39 c-5 61 0 66 68
66 l60 0 0 -55z m285 -10 c0 -10 -6 -20 -12 -22 -8 -3 -13 5 -13 22 0 17 5 25
13 23 6 -3 12 -13 12 -23z m-305 -112 c1 -27 7 -59 15 -73 20 -36 19 -40 -15
-40 -24 0 -31 5 -36 28 -3 15 -12 51 -19 80 l-13 52 34 0 c34 0 34 0 34 -47z"/>
</g>
</svg>
