<?xml version="1.0" encoding="UTF-8" standalone="no"?>
<svg
   xmlns:dc="http://purl.org/dc/elements/1.1/"
   xmlns:cc="http://creativecommons.org/ns#"
   xmlns:rdf="http://www.w3.org/1999/02/22-rdf-syntax-ns#"
   xmlns:svg="http://www.w3.org/2000/svg"
   xmlns="http://www.w3.org/2000/svg"
   xmlns:sodipodi="http://sodipodi.sourceforge.net/DTD/sodipodi-0.dtd"
   xmlns:inkscape="http://www.inkscape.org/namespaces/inkscape"
   inkscape:version="1.0 (4035a4fb49, 2020-05-01)"
   sodipodi:docname="lines.svg"
   id="svg10"
   preserveAspectRatio="xMidYMid meet"
   viewBox="0 0 600.000000 400.000000"
   height="400.000000pt"
   width="600.000000pt"
   version="1.0">
  <metadata
     id="metadata16">
    <rdf:RDF>
      <cc:Work
         rdf:about="">
        <dc:format>image/svg+xml</dc:format>
        <dc:type
           rdf:resource="http://purl.org/dc/dcmitype/StillImage" />
      </cc:Work>
    </rdf:RDF>
  </metadata>
  <defs
     id="defs14" />
  <sodipodi:namedview
     inkscape:current-layer="svg10"
     inkscape:window-maximized="1"
     inkscape:window-y="-8"
     inkscape:window-x="-8"
     inkscape:cy="266.66667"
     inkscape:cx="400"
     inkscape:zoom="1.00875"
     showgrid="false"
     id="namedview12"
     inkscape:window-height="705"
     inkscape:window-width="1366"
     inkscape:pageshadow="2"
     inkscape:pageopacity="0"
     guidetolerance="10"
     gridtolerance="10"
     objecttolerance="10"
     borderopacity="1"
     bordercolor="#666666"
     pagecolor="#ffffff" />
  <g
     style="fill:#ffffff"
     id="g8"
     stroke="none"
     fill="#000000"
     transform="translate(0.000000,400.000000) scale(0.100000,-0.100000)">
    <path
       style="fill:#ffffff"
       id="path2"
       d="M1510 2865 l0 -245 1410 0 1410 0 0 245 0 245 -1410 0 -1410 0 0 -245z" />
    <path
       style="fill:#ffffff"
       id="path4"
       d="M1510 2005 l0 -245 1410 0 1410 0 0 245 0 245 -1410 0 -1410 0 0 -245z" />
    <path
       style="fill:#ffffff"
       id="path6"
       d="M1510 1115 l0 -245 1410 0 1410 0 0 245 0 245 -1410 0 -1410 0 0 -245z" />
  </g>
</svg>
