<?xml version="1.0" encoding="UTF-8" standalone="no"?>
<svg
   xmlns:dc="http://purl.org/dc/elements/1.1/"
   xmlns:cc="http://creativecommons.org/ns#"
   xmlns:rdf="http://www.w3.org/1999/02/22-rdf-syntax-ns#"
   xmlns:svg="http://www.w3.org/2000/svg"
   xmlns="http://www.w3.org/2000/svg"
   xmlns:sodipodi="http://sodipodi.sourceforge.net/DTD/sodipodi-0.dtd"
   xmlns:inkscape="http://www.inkscape.org/namespaces/inkscape"
   inkscape:version="1.0 (4035a4fb49, 2020-05-01)"
   sodipodi:docname="moon.svg"
   id="svg6"
   preserveAspectRatio="xMidYMid meet"
   viewBox="0 0 90.000000 90.000000"
   height="90.000000pt"
   width="90.000000pt"
   version="1.0">
  <metadata
     id="metadata12">
    <rdf:RDF>
      <cc:Work
         rdf:about="">
        <dc:format>image/svg+xml</dc:format>
        <dc:type
           rdf:resource="http://purl.org/dc/dcmitype/StillImage" />
      </cc:Work>
    </rdf:RDF>
  </metadata>
  <defs
     id="defs10" />
  <sodipodi:namedview
     inkscape:current-layer="svg6"
     inkscape:window-maximized="1"
     inkscape:window-y="-8"
     inkscape:window-x="-8"
     inkscape:cy="60"
     inkscape:cx="60"
     inkscape:zoom="4.4833333"
     showgrid="false"
     id="namedview8"
     inkscape:window-height="705"
     inkscape:window-width="1366"
     inkscape:pageshadow="2"
     inkscape:pageopacity="0"
     guidetolerance="10"
     gridtolerance="10"
     objecttolerance="10"
     borderopacity="1"
     bordercolor="#666666"
     pagecolor="#ffffff" />
  <g
     style="fill:#ffffff"
     id="g4"
     stroke="none"
     fill="#000000"
     transform="translate(0.000000,90.000000) scale(0.100000,-0.100000)">
    <path
       style="fill:#ffffff"
       id="path2"
       d="M285 768 c-62 -32 -131 -104 -162 -172 -24 -52 -28 -74 -28 -146 0 -72 4 -94 28 -146 36 -77 104 -145 182 -181 51 -24 73 -28 145 -28 72 0 94 4 145 28 63 29 137 93 161 139 l14 26 -38 -10 c-56 -16 -152 -4 -218 26 -163 75 -251 267 -197 429 11 31 17 57 14 57 -3 -1 -24 -10 -46 -22z" />
  </g>
</svg>
