<?xml version="1.0" encoding="UTF-8" standalone="no"?>
<svg
   xmlns:dc="http://purl.org/dc/elements/1.1/"
   xmlns:cc="http://creativecommons.org/ns#"
   xmlns:rdf="http://www.w3.org/1999/02/22-rdf-syntax-ns#"
   xmlns:svg="http://www.w3.org/2000/svg"
   xmlns="http://www.w3.org/2000/svg"
   xmlns:sodipodi="http://sodipodi.sourceforge.net/DTD/sodipodi-0.dtd"
   xmlns:inkscape="http://www.inkscape.org/namespaces/inkscape"
   inkscape:version="1.0 (4035a4fb49, 2020-05-01)"
   sodipodi:docname="qr.svg"
   id="svg22"
   preserveAspectRatio="xMidYMid meet"
   viewBox="0 0 96.000000 96.000000"
   height="96.000000pt"
   width="96.000000pt"
   version="1.0">
  <metadata
     id="metadata28">
    <rdf:RDF>
      <cc:Work
         rdf:about="">
        <dc:format>image/svg+xml</dc:format>
        <dc:type
           rdf:resource="http://purl.org/dc/dcmitype/StillImage" />
      </cc:Work>
    </rdf:RDF>
  </metadata>
  <defs
     id="defs26" />
  <sodipodi:namedview
     inkscape:current-layer="svg22"
     inkscape:window-maximized="1"
     inkscape:window-y="-8"
     inkscape:window-x="-8"
     inkscape:cy="64"
     inkscape:cx="64"
     inkscape:zoom="4.203125"
     showgrid="false"
     id="namedview24"
     inkscape:window-height="705"
     inkscape:window-width="1366"
     inkscape:pageshadow="2"
     inkscape:pageopacity="0"
     guidetolerance="10"
     gridtolerance="10"
     objecttolerance="10"
     borderopacity="1"
     bordercolor="#666666"
     pagecolor="#ffffff" />
  <g
     style="fill:#0e76a8;fill-opacity:1"
     id="g20"
     stroke="none"
     fill="#000000"
     transform="translate(0.000000,96.000000) scale(0.100000,-0.100000)">
    <path
       style="fill:#0e76a8;fill-opacity:1"
       id="path2"
       d="M132 828 c-16 -16 -16 -200 0 -216 16 -16 200 -16 216 0 16 16 16 200 0 216 -16 16 -200 16 -216 0z m148 -108 l0 -40 -40 0 -40 0 0 40 0 40 40 0 40 0 0 -40z" />
    <path
       style="fill:#0e76a8;fill-opacity:1"
       id="path4"
       d="M440 800 l0 -40 40 0 40 0 0 40 0 40 -40 0 -40 0 0 -40z" />
    <path
       style="fill:#0e76a8;fill-opacity:1"
       id="path6"
       d="M612 828 c-16 -16 -16 -200 0 -216 16 -16 200 -16 216 0 16 16 16 200 0 216 -16 16 -200 16 -216 0z m148 -108 l0 -40 -40 0 -40 0 0 40 0 40 40 0 40 0 0 -40z" />
    <path
       style="fill:#0e76a8;fill-opacity:1"
       id="path8"
       d="M440 640 l0 -40 40 0 40 0 0 40 0 40 -40 0 -40 0 0 -40z" />
    <path
       style="fill:#0e76a8;fill-opacity:1"
       id="path10"
       d="M120 480 l0 -40 40 0 40 0 0 40 0 40 -40 0 -40 0 0 -40z" />
    <path
       style="fill:#0e76a8;fill-opacity:1"
       id="path12"
       d="M280 480 l0 -40 40 0 40 0 0 40 0 40 -40 0 -40 0 0 -40z" />
    <path
       style="fill:#0e76a8;fill-opacity:1"
       id="path14"
       d="M440 480 l0 -40 40 0 40 0 0 -40 0 -40 -40 0 -40 0 0 -40 0 -40 40 0 40 0 0 -40 0 -40 -40 0 -40 0 0 -40 0 -40 40 0 40 0 0 40 0 40 40 0 40 0 0 -40 0 -40 40 0 40 0 0 40 0 40 40 0 40 0 0 -40 0 -40 40 0 40 0 0 40 0 40 -40 0 -40 0 0 40 0 40 40 0 40 0 0 40 0 40 -40 0 -40 0 0 40 0 40 40 0 40 0 0 40 0 40 -40 0 -40 0 0 -40 0 -40 -40 0 -40 0 0 40 0 40 -40 0 -40 0 0 -40 0 -40 -40 0 -40 0 0 40 0 40 -40 0 -40 0 0 -40z m240 -80 l0 -40 40 0 40 0 0 -40 0 -40 -40 0 -40 0 0 -40 0 -40 -40 0 -40 0 0 40 0 40 -40 0 -40 0 0 40 0 40 40 0 40 0 0 40 0 40 40 0 40 0 0 -40z" />
    <path
       style="fill:#0e76a8;fill-opacity:1"
       id="path16"
       d="M600 320 l0 -40 40 0 40 0 0 40 0 40 -40 0 -40 0 0 -40z" />
    <path
       style="fill:#0e76a8;fill-opacity:1"
       id="path18"
       d="M132 348 c-16 -16 -16 -200 0 -216 16 -16 200 -16 216 0 16 16 16 200 0 216 -16 16 -200 16 -216 0z m148 -108 l0 -40 -40 0 -40 0 0 40 0 40 40 0 40 0 0 -40z" />
  </g>
</svg>
