<?xml version="1.0" standalone="no"?>
<!DOCTYPE svg PUBLIC "-//W3C//DTD SVG 20010904//EN"
 "http://www.w3.org/TR/2001/REC-SVG-20010904/DTD/svg10.dtd">
<svg version="1.0" xmlns="http://www.w3.org/2000/svg"
 width="64.000000pt" height="64.000000pt" viewBox="0 0 64.000000 64.000000"
 preserveAspectRatio="xMidYMid meet">

<g transform="translate(0.000000,64.000000) scale(0.100000,-0.100000)"
fill="#000000" stroke="none">
<path d="M326 518 c-9 -12 -16 -31 -16 -41 0 -33 -31 -92 -67 -129 -39 -40
-39 -61 1 -35 32 22 65 77 85 145 13 44 22 57 37 57 26 0 30 -43 10 -106 -9
-26 -16 -50 -16 -53 0 -3 28 -6 61 -8 84 -4 88 -12 67 -133 -9 -53 -23 -104
-30 -112 -10 -13 -33 -15 -130 -11 -110 4 -141 -1 -102 -16 9 -3 64 -6 123 -6
92 0 110 3 125 18 23 26 58 220 44 247 -16 30 -28 35 -81 35 -41 0 -48 3 -43
18 22 71 24 108 10 130 -19 29 -58 29 -78 0z"/>
<path d="M77 304 c-13 -13 4 -24 39 -24 l34 0 0 -95 0 -95 -35 0 c-19 0 -35
-4 -35 -10 0 -5 20 -10 45 -10 l46 0 -3 118 -3 117 -40 3 c-23 2 -44 0 -48 -4z"/>
</g>
</svg>
