<svg id="svg" version="1.1" xmlns="http://www.w3.org/2000/svg" xmlns:xlink="http://www.w3.org/1999/xlink" width="400" height="400" viewBox="0, 0, 400,400"><g id="svgg"><path id="path0" d="M58.954 57.374 C 58.118 57.738,57.564 58.358,57.271 59.258 C 56.920 60.337,56.929 60.450,57.317 59.835 C 57.935 58.855,58.866 57.927,59.835 57.324 C 60.857 56.687,60.482 56.709,58.954 57.374 M114.274 99.993 C 113.655 100.186,112.575 100.782,111.874 101.316 C 111.173 101.850,109.610 102.783,108.400 103.389 C 105.520 104.832,104.909 105.407,103.716 107.800 C 103.168 108.900,102.063 110.767,101.260 111.949 L 99.800 114.099 99.800 120.801 L 99.800 127.504 101.260 129.652 C 102.063 130.833,103.168 132.700,103.716 133.800 C 104.838 136.050,105.430 136.641,108.000 138.078 C 108.990 138.631,110.869 139.740,112.176 140.542 L 114.553 142.000 120.576 141.991 C 126.996 141.982,127.854 141.778,131.062 139.497 C 131.757 139.004,133.242 138.105,134.362 137.500 C 135.921 136.659,136.659 135.921,137.500 134.362 C 138.105 133.242,139.004 131.757,139.497 131.062 C 142.450 126.908,143.188 117.560,140.900 113.292 C 140.295 112.163,139.140 110.005,138.334 108.497 C 136.693 105.428,136.372 105.098,133.371 103.400 C 132.205 102.740,130.384 101.660,129.325 101.000 C 127.283 99.727,117.270 99.057,114.274 99.993 M100.582 158.982 L 99.600 159.964 99.600 229.200 L 99.600 298.436 100.582 299.418 L 101.564 300.400 120.800 300.400 L 140.036 300.400 141.018 299.418 L 142.000 298.436 142.000 229.200 L 142.000 159.964 141.018 158.982 L 140.036 158.000 120.800 158.000 L 101.564 158.000 100.582 158.982 M167.270 158.926 L 166.400 159.852 166.400 229.297 L 166.400 298.742 167.454 299.571 C 168.487 300.383,168.891 300.400,187.599 300.400 L 206.691 300.400 207.745 299.345 L 208.800 298.291 208.817 255.645 C 208.836 211.195,208.871 210.219,210.509 208.473 C 211.063 207.883,212.076 206.276,212.762 204.903 C 214.920 200.581,218.384 197.536,222.865 196.027 C 230.092 193.592,231.911 193.457,237.160 194.967 C 239.060 195.514,241.369 196.081,242.290 196.229 C 245.092 196.677,252.794 204.076,253.763 207.251 C 254.073 208.269,254.971 210.346,255.758 211.866 C 257.913 216.029,257.985 217.602,257.993 260.318 L 258.000 298.436 258.982 299.418 L 259.964 300.400 279.200 300.400 L 298.436 300.400 299.418 299.418 L 300.400 298.436 300.400 254.488 C 300.400 208.292,300.288 204.963,298.573 200.313 C 297.260 196.750,296.835 195.141,296.373 191.981 C 295.978 189.276,295.659 188.415,294.486 186.878 C 293.710 185.861,292.749 183.953,292.351 182.639 C 291.804 180.832,291.184 179.823,289.814 178.510 C 288.816 177.554,288.000 176.553,288.000 176.285 C 288.000 175.855,286.033 173.778,280.600 168.470 C 279.720 167.611,278.194 166.498,277.208 165.999 C 276.223 165.499,274.781 164.579,274.004 163.955 C 273.100 163.228,271.428 162.531,269.354 162.014 C 267.572 161.571,265.144 160.767,263.958 160.227 C 258.013 157.521,240.642 157.005,234.400 159.349 C 232.750 159.968,229.879 161.004,228.019 161.651 C 226.094 162.321,223.770 163.490,222.619 164.368 C 221.509 165.215,219.880 166.276,219.000 166.725 C 218.120 167.174,217.040 168.103,216.600 168.790 C 216.160 169.476,215.219 170.402,214.509 170.846 C 213.755 171.318,212.692 172.641,211.953 174.027 C 209.694 178.266,208.800 176.154,208.800 166.574 C 208.800 160.089,208.781 159.945,207.818 158.982 L 206.836 158.000 187.488 158.000 L 168.139 158.000 167.270 158.926 " stroke="none" fill="#ffffff" fill-rule="evenodd"></path><path id="path1" d="M71.833 48.394 C 70.111 48.726,69.200 49.654,69.200 51.076 C 69.200 51.884,69.003 52.000,67.633 52.000 C 65.088 52.000,64.800 52.249,64.800 54.443 L 64.800 56.400 62.800 56.400 C 60.849 56.400,60.362 56.638,58.500 58.500 C 56.638 60.362,56.400 60.849,56.400 62.800 L 56.400 64.800 54.443 64.800 C 52.249 64.800,52.000 65.088,52.000 67.633 C 52.000 69.038,51.897 69.200,51.000 69.200 C 47.707 69.200,47.946 58.372,48.081 201.600 C 48.212 340.363,47.985 329.177,50.700 330.372 C 51.833 330.871,52.000 331.137,52.000 332.439 C 52.000 334.906,52.260 335.200,54.443 335.200 L 56.400 335.200 56.400 337.200 C 56.400 339.151,56.638 339.638,58.500 341.500 C 60.362 343.362,60.849 343.600,62.800 343.600 L 64.800 343.600 64.800 345.557 C 64.800 347.740,65.094 348.000,67.561 348.000 C 68.863 348.000,69.129 348.167,69.628 349.300 C 70.824 352.018,59.432 351.800,200.000 351.800 C 340.568 351.800,329.176 352.018,330.372 349.300 C 330.871 348.167,331.137 348.000,332.439 348.000 C 334.906 348.000,335.200 347.740,335.200 345.557 L 335.200 343.600 337.200 343.600 C 339.151 343.600,339.638 343.362,341.500 341.500 C 343.362 339.638,343.600 339.151,343.600 337.200 L 343.600 335.200 345.557 335.200 C 347.751 335.200,348.000 334.912,348.000 332.367 C 348.000 330.997,348.116 330.800,348.924 330.800 C 350.386 330.800,351.252 329.894,351.622 327.976 C 352.070 325.655,352.070 74.345,351.622 72.024 C 351.252 70.106,350.386 69.200,348.924 69.200 C 348.116 69.200,348.000 69.003,348.000 67.633 C 348.000 65.088,347.751 64.800,345.557 64.800 L 343.600 64.800 343.600 62.800 C 343.600 60.849,343.362 60.362,341.500 58.500 C 339.638 56.638,339.151 56.400,337.200 56.400 L 335.200 56.400 335.200 54.443 C 335.200 52.249,334.912 52.000,332.367 52.000 C 330.997 52.000,330.800 51.884,330.800 51.076 C 330.800 49.614,329.894 48.748,327.976 48.378 C 325.793 47.956,74.021 47.972,71.833 48.394 M129.325 101.000 C 130.384 101.660,132.205 102.740,133.371 103.400 C 136.372 105.098,136.693 105.428,138.334 108.497 C 139.140 110.005,140.295 112.163,140.900 113.292 C 143.188 117.560,142.450 126.908,139.497 131.062 C 139.004 131.757,138.105 133.242,137.500 134.362 C 136.659 135.921,135.921 136.659,134.362 137.500 C 133.242 138.105,131.757 139.004,131.062 139.497 C 127.854 141.778,126.996 141.982,120.576 141.991 L 114.553 142.000 112.176 140.542 C 110.869 139.740,108.990 138.631,108.000 138.078 C 105.430 136.641,104.838 136.050,103.716 133.800 C 103.168 132.700,102.063 130.833,101.260 129.652 L 99.800 127.504 99.800 120.801 L 99.800 114.099 101.260 111.949 C 102.063 110.767,103.168 108.900,103.716 107.800 C 104.909 105.407,105.520 104.832,108.400 103.389 C 109.610 102.783,111.173 101.850,111.874 101.316 C 114.803 99.083,125.928 98.882,129.325 101.000 M141.018 158.982 L 142.000 159.964 142.000 229.200 L 142.000 298.436 141.018 299.418 L 140.036 300.400 120.800 300.400 L 101.564 300.400 100.582 299.418 L 99.600 298.436 99.600 229.200 L 99.600 159.964 100.582 158.982 L 101.564 158.000 120.800 158.000 L 140.036 158.000 141.018 158.982 M207.818 158.982 C 208.781 159.945,208.800 160.089,208.800 166.574 C 208.800 176.154,209.694 178.266,211.953 174.027 C 212.692 172.641,213.755 171.318,214.509 170.846 C 215.219 170.402,216.160 169.476,216.600 168.790 C 217.040 168.103,218.120 167.174,219.000 166.725 C 219.880 166.276,221.509 165.215,222.619 164.368 C 223.770 163.490,226.094 162.321,228.019 161.651 C 229.879 161.004,232.750 159.968,234.400 159.349 C 240.642 157.005,258.013 157.521,263.958 160.227 C 265.144 160.767,267.572 161.571,269.354 162.014 C 271.428 162.531,273.100 163.228,274.004 163.955 C 274.781 164.579,276.223 165.499,277.208 165.999 C 278.194 166.498,279.720 167.611,280.600 168.470 C 286.033 173.778,288.000 175.855,288.000 176.285 C 288.000 176.553,288.816 177.554,289.814 178.510 C 291.184 179.823,291.804 180.832,292.351 182.639 C 292.749 183.953,293.710 185.861,294.486 186.878 C 295.659 188.415,295.978 189.276,296.373 191.981 C 296.835 195.141,297.260 196.750,298.573 200.313 C 300.288 204.963,300.400 208.292,300.400 254.488 L 300.400 298.436 299.418 299.418 L 298.436 300.400 279.200 300.400 L 259.964 300.400 258.982 299.418 L 258.000 298.436 257.993 260.318 C 257.985 217.602,257.913 216.029,255.758 211.866 C 254.971 210.346,254.073 208.269,253.763 207.251 C 252.794 204.076,245.092 196.677,242.290 196.229 C 241.369 196.081,239.060 195.514,237.160 194.967 C 231.911 193.457,230.092 193.592,222.865 196.027 C 218.384 197.536,214.920 200.581,212.762 204.903 C 212.076 206.276,211.063 207.883,210.509 208.473 C 208.871 210.219,208.836 211.195,208.817 255.645 L 208.800 298.291 207.745 299.345 L 206.691 300.400 187.599 300.400 C 168.891 300.400,168.487 300.383,167.454 299.571 L 166.400 298.742 166.400 229.297 L 166.400 159.852 167.270 158.926 L 168.139 158.000 187.488 158.000 L 206.836 158.000 207.818 158.982 " stroke="none" fill="#048cd4" fill-rule="evenodd"></path></g></svg>