<?xml version="1.0" standalone="no"?>
<!DOCTYPE svg PUBLIC "-//W3C//DTD SVG 20010904//EN"
 "http://www.w3.org/TR/2001/REC-SVG-20010904/DTD/svg10.dtd">
<svg version="1.0" xmlns="http://www.w3.org/2000/svg"
 width="24.000000pt" height="24.000000pt" viewBox="0 0 24.000000 24.000000"
 preserveAspectRatio="xMidYMid meet">

<g transform="translate(0.000000,24.000000) scale(0.100000,-0.100000)"
fill="#000000" stroke="none">
<path d="M90 214 c-11 -13 -10 -19 8 -37 19 -19 22 -19 22 -4 0 9 5 17 10 17
21 0 60 -49 60 -75 0 -14 5 -25 10 -25 6 0 10 14 10 31 0 33 -46 89 -74 89 -9
0 -16 5 -16 10 0 15 -16 12 -30 -6z"/>
<path d="M30 119 c0 -33 46 -89 74 -89 9 0 16 -8 16 -17 0 -15 3 -14 22 5 21
21 22 23 5 39 -15 16 -19 16 -27 3 -15 -24 -64 19 -68 58 -4 41 -22 42 -22 1z"/>
</g>
</svg>
