<?xml version="1.0" standalone="no"?>
<!DOCTYPE svg PUBLIC "-//W3C//DTD SVG 20010904//EN"
 "http://www.w3.org/TR/2001/REC-SVG-20010904/DTD/svg10.dtd">
<svg version="1.0" xmlns="http://www.w3.org/2000/svg"
 width="50.000000pt" height="50.000000pt" viewBox="0 0 50.000000 50.000000"
 preserveAspectRatio="xMidYMid meet">

<g transform="translate(0.000000,50.000000) scale(0.100000,-0.100000)"
fill="#000000" stroke="none">
<path d="M280 341 c0 -38 0 -38 -46 -44 -88 -10 -170 -98 -188 -204 -6 -38 9
-45 18 -9 13 53 104 106 184 106 30 0 32 -2 32 -35 0 -19 5 -35 11 -35 13 0
159 119 159 130 0 11 -146 130 -159 130 -6 0 -11 -17 -11 -39z m115 -56 l40
-35 -40 -35 c-22 -20 -52 -45 -67 -56 l-28 -20 0 30 c0 16 -3 32 -7 34 -19 11
-140 -15 -175 -38 -49 -32 -52 -32 -32 8 35 69 85 105 163 116 43 6 46 8 49
39 l3 32 27 -19 c15 -11 45 -36 67 -56z"/>
</g>
</svg>
