<?xml version="1.0" standalone="no"?>
<!DOCTYPE svg PUBLIC "-//W3C//DTD SVG 20010904//EN"
 "http://www.w3.org/TR/2001/REC-SVG-20010904/DTD/svg10.dtd">
<svg version="1.0" xmlns="http://www.w3.org/2000/svg"
 width="50.000000pt" height="50.000000pt" viewBox="0 0 50.000000 50.000000"
 preserveAspectRatio="xMidYMid meet">

<g transform="translate(0.000000,50.000000) scale(0.100000,-0.100000)"
fill="#000000" stroke="none">
<path d="M154 451 c-40 -17 -54 -50 -54 -126 1 -46 6 -77 15 -89 29 -38 19
-64 -34 -91 -55 -27 -81 -57 -81 -92 l0 -23 203 2 202 3 -3 23 c-3 20 1 22 47
22 46 0 51 2 51 23 0 33 -23 61 -69 82 -45 20 -49 31 -26 76 11 19 15 50 13
86 -4 73 -32 97 -116 100 -31 1 -73 4 -92 7 -19 3 -45 1 -56 -3z m94 -57 c20
-14 22 -21 16 -67 -4 -29 -13 -64 -20 -79 -20 -38 -18 -92 4 -110 9 -8 31 -20
49 -27 18 -7 38 -19 44 -27 10 -12 -12 -14 -140 -14 -164 0 -176 6 -92 41 25
11 52 27 59 36 14 20 16 56 3 81 -27 50 -39 146 -20 168 15 19 69 18 97 -2z
m116 -7 c16 -12 17 -19 6 -70 -6 -31 -16 -59 -21 -62 -5 -4 -9 -19 -9 -35 0
-29 38 -70 65 -70 7 0 18 -7 25 -15 11 -13 8 -15 -18 -15 -40 0 -142 48 -142
66 0 8 9 32 20 54 11 21 19 47 18 57 0 10 0 37 0 61 2 46 20 55 56 29z"/>
</g>
</svg>
