<?xml version="1.0" standalone="no"?>
<!DOCTYPE svg PUBLIC "-//W3C//DTD SVG 20010904//EN"
 "http://www.w3.org/TR/2001/REC-SVG-20010904/DTD/svg10.dtd">
<svg version="1.0" xmlns="http://www.w3.org/2000/svg"
 width="32.000000pt" height="32.000000pt" viewBox="0 0 32.000000 32.000000"
 preserveAspectRatio="xMidYMid meet">

<g transform="translate(0.000000,32.000000) scale(0.100000,-0.100000)"
fill="#000000" stroke="none">
<path d="M76 279 c-30 -24 -34 -63 -10 -91 16 -16 15 -18 0 -24 -28 -11 -59
-84 -36 -84 6 0 10 7 10 15 0 27 47 65 79 65 30 0 31 0 25 -44 -6 -39 -3 -48
19 -70 34 -34 79 -34 112 -1 33 33 33 78 -1 112 -23 22 -31 25 -71 19 -44 -6
-45 -5 -30 12 25 28 21 67 -9 91 -15 12 -34 21 -44 21 -10 0 -29 -9 -44 -21z
m78 -15 c31 -30 9 -84 -34 -84 -24 0 -50 26 -50 50 0 24 26 50 50 50 10 0 26
-7 34 -16z m106 -124 c11 -11 20 -29 20 -40 0 -26 -34 -60 -60 -60 -26 0 -60
34 -60 60 0 26 34 60 60 60 11 0 29 -9 40 -20z"/>
<path d="M210 125 c0 -8 -7 -15 -15 -15 -8 0 -15 -4 -15 -10 0 -5 7 -10 15
-10 8 0 15 -7 15 -15 0 -8 5 -15 10 -15 6 0 10 7 10 15 0 8 7 15 15 15 8 0 15
5 15 10 0 6 -7 10 -15 10 -8 0 -15 7 -15 15 0 8 -4 15 -10 15 -5 0 -10 -7 -10
-15z"/>
</g>
</svg>
